# xmcd
#
# Track frame offsets:
#	150
#	11312
#	27431
#	45493
#	63250
#	75274
#	92617
#	106265
#	123561
#	135914
#	147237
#
# Disc length: 2122 seconds
#
# Revision: 1
# Processed by: cddbd v1.5.2PL0 Copyright (c) Steve Scherf et al.
# Submitted via: audiograbber 1.83.01
#
DISCID=7c08480b
DTITLE=Trisha Yearwood - Christmas
DYEAR=2016
DGENRE=Country
TTITLE0=Let It Snow! Let It Snow! Let It Snow!
TTITLE1=An Angel Gets Its Wings
TTITLE2=The Christmas Song (Chestnuts Roasting On An Open Fire)
TTITLE3=It Wasn't His Child
TTITLE4=Reindeer Boogie
TTITLE5=Take A Walk Through Bethlehem
TTITLE6=Santa Claus Is Back In Town
TTITLE7=I'll Be Home For Christmas
TTITLE8=Sweet Little Jesus Boy
TTITLE9=Have Yourself A Merry Little Christmas
TTITLE10=Away In A Manger
EXTD=
EXTT0=
EXTT1=
EXTT2=
EXTT3=
EXTT4=
EXTT5=
EXTT6=
EXTT7=
EXTT8=
EXTT9=
EXTT10=
PLAYORDER=
